<?xml version="1.0" standalone="no"?>
<!DOCTYPE svg PUBLIC "-//W3C//DTD SVG 20010904//EN"
 "http://www.w3.org/TR/2001/REC-SVG-20010904/DTD/svg10.dtd">
<svg version="1.0" xmlns="http://www.w3.org/2000/svg"
 width="250.000000pt" height="250.000000pt" viewBox="0 0 250.000000 250.000000"
 preserveAspectRatio="xMidYMid meet">
<metadata>
Created by potrace 1.11, written by Peter Selinger 2001-2013
</metadata>
<g transform="translate(0.000000,250.000000) scale(0.100000,-0.100000)"
fill="#000000" stroke="none">
<path d="M97 2488 c-2 -7 0 -28 4 -46 4 -18 4 -42 1 -54 -3 -14 -1 -19 6 -14
11 7 16 -18 13 -64 0 -10 1 -11 5 -2 3 6 9 12 14 12 4 0 8 -6 7 -12 -1 -33 4
-49 13 -43 5 3 8 0 5 -7 -6 -15 60 -158 73 -158 5 0 27 -37 48 -82 44 -94 50
-109 35 -88 -6 8 -11 10 -11 4 0 -6 11 -24 24 -39 14 -16 22 -33 19 -39 -4 -5
0 -7 9 -3 11 4 14 1 11 -12 -2 -10 3 -25 11 -34 9 -8 16 -21 16 -27 0 -6 5 -8
12 -4 8 5 9 2 5 -11 -4 -9 -3 -23 1 -29 5 -6 12 -18 15 -28 4 -12 0 -15 -18
-13 -21 2 -23 0 -14 -17 5 -10 7 -23 4 -28 -3 -6 -1 -10 5 -10 6 0 8 -4 5 -10
-3 -5 -2 -10 2 -10 5 0 13 -10 18 -22 6 -13 17 -22 24 -20 7 1 9 -2 6 -9 -18
-27 -139 21 -235 94 -97 74 -177 113 -211 102 -18 -6 -19 -18 -19 -159 0 -131
2 -156 17 -167 9 -8 18 -13 20 -11 2 1 10 -4 18 -11 11 -11 11 -17 2 -26 -9
-10 0 -24 41 -62 49 -45 116 -91 86 -59 -18 18 15 50 39 38 10 -5 15 -13 12
-18 -3 -5 7 -16 22 -25 27 -15 27 -15 3 -9 -52 14 -54 14 -25 0 17 -8 40 -15
52 -16 26 0 40 -17 18 -22 -12 -2 -11 -6 6 -16 11 -8 19 -10 16 -5 -3 4 6 9
19 9 22 2 23 1 8 -10 -12 -9 -14 -15 -6 -20 7 -4 12 -2 12 4 0 12 47 -16 68
-40 8 -8 11 -10 8 -3 -4 6 -1 15 5 19 9 5 11 -4 6 -34 -3 -24 -1 -40 4 -36 5
3 9 1 9 -5 0 -5 -6 -12 -13 -14 -9 -4 -9 -6 1 -6 23 -2 3 -20 -44 -40 -30 -13
-43 -25 -38 -32 4 -7 3 -9 -3 -6 -6 4 -17 -1 -24 -10 -8 -9 -29 -22 -46 -30
-18 -7 -33 -17 -33 -21 0 -4 -17 -9 -37 -10 -43 -3 -58 -12 -20 -12 34 0 43
-16 17 -30 -14 -8 -26 -8 -40 0 -16 9 -18 8 -14 -5 4 -10 0 -15 -14 -15 -11 0
-27 -6 -34 -14 -8 -7 -27 -21 -43 -29 -57 -31 -75 -53 -75 -91 0 -34 2 -37 33
-38 73 -2 244 2 265 7 15 4 21 2 17 -4 -3 -6 0 -8 8 -6 8 4 12 18 10 38 -2 28
-2 29 5 7 5 -15 16 -25 27 -26 11 0 39 -1 61 -2 l41 -2 7 -64 c6 -61 22 -123
35 -138 3 -4 4 33 3 82 -2 51 1 96 7 107 6 10 11 12 11 6 0 -7 14 -43 32 -80
25 -53 33 -86 37 -153 l6 -85 17 30 c9 17 19 49 23 70 4 22 11 46 15 54 4 8
-3 32 -17 57 -14 24 -23 50 -21 58 3 13 7 13 35 0 18 -9 39 -27 48 -41 16 -24
16 -24 -4 -14 -28 16 -49 14 -30 -1 9 -7 22 -33 29 -56 10 -30 22 -47 38 -53
14 -5 27 -7 30 -4 3 3 0 5 -6 5 -7 0 -12 7 -12 16 0 14 3 14 15 4 8 -7 15 -17
15 -23 0 -6 18 -34 41 -64 22 -30 39 -58 37 -64 -2 -5 -20 -1 -41 10 -23 12
-37 14 -36 7 1 -21 59 -131 58 -111 -4 70 8 71 58 5 l37 -50 11 33 c10 30 9
34 -22 60 -47 40 -97 117 -95 145 1 13 -3 33 -10 45 -10 20 -10 21 5 8 15 -12
17 -10 17 19 0 29 2 32 25 26 25 -7 35 8 13 18 -7 3 -3 3 10 0 16 -4 34 3 57
20 38 30 51 32 58 12 4 -9 28 -17 62 -21 30 -4 59 -12 63 -19 13 -20 40 -115
33 -119 -3 -2 0 -2 7 -1 7 2 15 -3 18 -11 4 -8 10 -15 16 -15 5 0 6 5 2 12 -4
7 9 2 30 -10 20 -12 35 -18 32 -13 -3 5 7 11 22 14 23 5 60 43 50 52 -2 1 -23
6 -48 9 -52 7 -70 26 -70 75 0 20 -3 46 -6 58 -5 20 -2 23 20 23 16 0 31 -9
42 -25 16 -24 44 -34 44 -16 0 5 9 13 20 16 12 4 20 15 20 28 0 26 30 48 58
42 10 -2 25 5 33 16 7 10 21 19 31 19 10 0 18 4 18 10 0 15 42 51 78 66 17 8
32 18 32 23 0 12 33 9 43 -4 6 -6 10 -6 14 3 2 6 9 10 14 6 10 -6 -14 -34 -30
-34 -6 0 -11 -6 -11 -14 0 -22 -19 -29 -37 -14 -14 11 -15 10 -9 -8 6 -19 0
-24 -43 -40 -28 -10 -48 -21 -45 -25 6 -11 117 31 127 48 4 7 17 13 27 13 11
0 19 5 18 11 -2 6 3 14 10 16 7 3 12 -3 12 -14 1 -17 1 -17 11 0 5 9 8 21 5
26 -3 5 1 14 9 21 13 11 14 -2 11 -106 -4 -113 -4 -115 5 -38 13 120 27 147
30 59 l2 -70 7 55 c5 50 7 52 14 25 13 -50 14 -51 15 -18 1 21 10 40 30 58 20
19 27 34 23 49 -4 21 -4 21 11 1 9 -11 17 -30 17 -43 0 -50 -55 -142 -87 -142
-8 0 -13 -12 -13 -29 0 -43 -21 -96 -31 -79 -6 9 -9 3 -9 -17 0 -16 -3 -41 -5
-55 -3 -14 3 -6 14 18 24 50 37 53 46 12 10 -45 23 -36 18 13 -3 23 -1 58 4
77 l10 35 18 -35 19 -35 7 73 c4 40 10 76 13 79 3 4 15 -2 26 -12 21 -19 21
-19 11 9 -18 45 -14 56 20 56 24 0 30 4 25 15 -6 16 10 20 39 9 11 -5 13 -9 5
-14 -7 -4 4 -17 29 -33 22 -14 52 -42 67 -62 19 -26 29 -32 35 -23 10 16 43
-13 71 -62 10 -19 30 -53 44 -75 13 -22 22 -48 20 -57 -2 -11 1 -15 11 -11 11
4 13 -1 8 -23 -5 -20 -4 -25 3 -15 7 10 11 6 15 -15 13 -67 21 -89 35 -103 10
-10 11 -16 3 -19 -6 -2 -8 -14 -5 -28 11 -45 -11 -24 -36 34 -14 32 -26 50
-28 40 -3 -18 -32 -34 -32 -17 0 6 -5 7 -11 3 -8 -4 -7 -9 2 -15 25 -15 3 -18
-26 -3 -20 10 -42 13 -70 9 -49 -8 -124 -44 -135 -65 -5 -8 -21 -17 -36 -18
-15 -1 -32 -6 -38 -11 -6 -5 -28 -12 -48 -16 -49 -9 -66 -29 -44 -51 20 -19
13 -48 -17 -81 l-20 -23 341 0 342 0 0 445 c0 432 -1 446 -20 465 -11 11 -20
27 -20 36 0 9 -5 12 -12 8 -7 -5 -8 -3 -3 5 4 7 -1 22 -13 34 -11 12 -24 34
-27 50 -4 15 -11 27 -16 27 -5 0 -5 7 -2 17 4 11 3 14 -5 9 -15 -9 -15 -1 0
27 10 20 10 21 -5 9 -14 -12 -17 -10 -23 12 -3 14 -10 23 -15 20 -8 -5 -13 9
-10 29 0 4 -3 7 -8 7 -5 0 -12 14 -16 30 -4 17 -10 28 -14 25 -5 -2 -14 13
-21 35 -7 22 -16 37 -20 35 -5 -3 -11 7 -14 21 -5 18 -2 32 10 46 20 21 27 48
14 48 -5 0 -13 12 -18 28 -10 25 -10 26 -11 4 -1 -13 4 -32 10 -43 8 -16 5
-26 -15 -50 -23 -27 -45 -36 -38 -15 2 5 -4 4 -12 -4 -9 -7 -16 -18 -16 -24 0
-7 4 -6 9 2 7 11 9 11 14 -2 4 -9 3 -15 -1 -15 -32 5 -47 -22 -57 -104 -8 -62
-16 -69 -39 -35 l-16 22 0 -29 c0 -17 -5 -37 -10 -45 -7 -11 -14 -5 -30 30
-12 25 -20 36 -17 24 3 -16 0 -20 -17 -19 -17 1 -20 7 -17 31 1 16 6 36 11 44
7 15 -14 80 -26 80 -3 0 -4 -7 0 -15 3 -8 1 -15 -4 -15 -5 0 -5 -13 0 -30 5
-17 5 -28 0 -25 -4 3 -11 -15 -14 -40 -4 -24 -11 -47 -16 -50 -17 -10 -40 7
-36 28 2 12 -1 28 -6 34 -6 7 -8 21 -5 32 4 17 1 18 -24 11 -36 -11 -38 4 -4
25 14 8 37 23 53 32 15 10 30 17 34 15 4 -1 5 5 2 13 -10 25 5 65 23 65 25 0
1 21 -26 23 -11 1 -21 4 -21 8 0 4 -10 10 -22 13 -21 6 -21 7 -5 17 23 14 22
23 -14 72 -55 76 -99 148 -105 175 -4 15 -11 32 -16 39 -5 7 -7 17 -3 22 3 6
-3 19 -15 31 -11 11 -20 25 -20 30 0 18 -52 33 -62 18 -6 -11 -8 -11 -8 0 0 7
-5 10 -12 6 -7 -4 -8 -3 -4 4 9 15 -68 52 -94 45 -10 -3 -22 -13 -25 -23 -3
-10 -11 -20 -18 -23 -22 -8 -7 54 21 91 24 32 64 43 77 22 4 -6 10 -8 14 -6
10 6 102 -40 94 -47 -3 -3 5 -3 18 0 15 4 20 3 15 -5 -4 -7 -2 -10 6 -7 9 4
14 -2 14 -14 0 -11 -5 -17 -13 -14 -7 3 -13 0 -13 -6 0 -6 4 -11 9 -11 5 0 11
-9 14 -20 3 -11 13 -20 22 -20 26 0 14 79 -16 102 -13 10 -48 42 -77 70 -49
48 -53 50 -66 33 -12 -16 -12 -13 -6 27 5 39 4 46 -9 43 -11 -2 -22 10 -33 35
-15 36 -15 38 1 32 13 -5 14 -3 5 9 -12 14 -4 85 17 155 14 46 11 73 -13 126
l-22 48 -727 0 c-573 0 -728 -3 -732 -12z m1240 -314 c19 -4 30 -11 26 -16 -4
-7 6 -9 25 -6 17 2 29 1 26 -4 -3 -4 1 -11 10 -14 8 -3 17 -12 20 -19 4 -10
-4 -9 -28 4 -30 17 -93 30 -156 32 -14 0 -52 3 -85 7 l-60 5 45 13 c42 12 100
11 177 -2z m213 -50 c0 -8 -4 -12 -10 -9 -5 3 -10 10 -10 16 0 5 5 9 10 9 6 0
10 -7 10 -16z m-266 -83 c3 -4 -6 -6 -19 -3 -14 2 -25 0 -25 -5 0 -10 100 -76
106 -71 1 2 -1 20 -5 41 -13 54 4 46 18 -9 11 -41 10 -48 -6 -60 -32 -25 -78
-52 -99 -58 -23 -7 -20 -12 -75 127 l-19 47 60 0 c32 0 61 -4 64 -9z m-139
-54 c-17 -41 -30 -52 -15 -13 5 13 6 26 3 30 -3 3 -3 13 1 22 4 12 10 14 17 7
6 -6 4 -22 -6 -46z m-440 14 c16 -7 14 -9 -16 -12 -27 -4 -35 -1 -32 8 6 14
18 15 48 4z m83 -11 c7 0 11 -4 8 -9 -4 -5 0 -12 6 -14 7 -3 2 -6 -12 -6 -25
0 -60 19 -60 34 0 4 10 5 23 1 12 -3 28 -6 35 -6z m59 -16 c-3 -3 -12 -4 -19
-1 -8 3 -5 6 6 6 11 1 17 -2 13 -5z m319 -58 c-9 -19 -22 -36 -29 -39 -8 -3
-4 14 12 47 13 28 26 45 29 38 2 -7 -3 -28 -12 -46z m-441 -94 c14 -12 28 -22
31 -22 3 0 20 -10 36 -22 29 -20 32 -20 43 -4 11 15 13 15 19 1 4 -10 -4 -25
-22 -41 -31 -28 -92 -68 -95 -63 -16 27 -87 168 -87 173 0 14 51 -1 75 -22z
m90 17 c11 -17 -1 -21 -15 -4 -8 9 -8 15 -2 15 6 0 14 -5 17 -11z m-182 -62
c-24 -52 -34 -46 -14 8 8 24 19 41 23 37 4 -4 0 -24 -9 -45z m805 14 c-7 -9
-14 -18 -15 -20 -2 -2 -3 5 -3 16 0 11 7 20 15 20 12 0 12 -3 3 -16z m-773
-69 c-7 -20 -15 -44 -18 -52 -3 -11 -7 -8 -15 10 -5 14 -6 27 -3 30 4 3 8 16
9 30 0 14 6 26 12 28 5 2 8 9 4 15 -3 7 1 4 9 -6 12 -14 12 -24 2 -55z m18 3
c-3 -9 -8 -14 -10 -11 -3 3 -2 9 2 15 9 16 15 13 8 -4z m-208 -5 c3 -5 -1 -10
-10 -10 -9 0 -13 5 -10 10 3 6 8 10 10 10 2 0 7 -4 10 -10z m229 -16 c3 -8 2
-12 -4 -9 -6 3 -10 10 -10 16 0 14 7 11 14 -7z m-234 -59 c0 -7 6 -16 13 -18
8 -4 6 -6 -4 -6 -9 -1 -21 10 -27 24 -9 20 -9 23 3 18 8 -3 15 -11 15 -18z
m1244 -161 c3 -8 2 -12 -4 -9 -6 3 -10 10 -10 16 0 14 7 11 14 -7z m-1508 -53
c16 -5 75 -15 132 -22 61 -7 98 -16 90 -21 -10 -6 -10 -8 2 -9 12 0 12 -2 1
-6 -11 -5 -11 -7 0 -14 11 -7 12 -11 1 -17 -13 -9 80 -62 143 -82 87 -27 136
-48 126 -54 -18 -11 -225 41 -284 71 -15 8 -32 11 -39 7 -6 -4 -8 -3 -4 4 3 6
-2 13 -11 16 -10 3 -55 30 -100 59 -128 82 -120 76 -102 76 9 1 29 -3 45 -8z
m1659 -19 c-3 -3 -11 0 -18 7 -9 10 -8 11 6 5 10 -3 15 -9 12 -12z m-429 -22
c0 -11 -4 -20 -8 -20 -10 0 -11 24 -1 33 9 9 9 10 9 -13z m238 -20 c20 -50 20
-47 -4 -46 -11 0 -32 15 -46 31 l-25 30 16 -33 c13 -26 14 -37 4 -48 -17 -21
-23 -18 -42 19 l-17 32 7 -30 c3 -16 11 -36 17 -44 9 -12 8 -13 -7 -8 -10 4
-22 7 -27 7 -12 0 -28 77 -19 92 7 11 11 10 19 -2 9 -12 10 -12 8 5 -2 15 2
20 20 19 12 0 22 3 22 8 0 4 13 8 29 8 24 0 31 -6 45 -40z m-1594 9 c0 -5 5
-7 12 -3 7 4 8 3 4 -4 -5 -8 1 -12 16 -12 21 -1 21 -1 5 -11 -15 -9 -23 -7
-38 10 -21 23 -24 31 -9 31 6 0 10 -5 10 -11z m89 -44 c19 0 23 -32 4 -39 -8
-3 -25 2 -38 12 -27 19 -33 37 -10 28 8 -3 15 0 15 7 0 7 3 8 8 2 4 -5 13 -10
21 -10z m1701 11 c0 -9 -40 -13 -46 -5 -3 5 6 9 20 9 14 0 26 -2 26 -4z m-353
-27 c2 -16 -1 -19 -9 -11 -5 5 -7 15 -4 21 10 15 12 14 13 -10z m396 11 c-13
-5 -23 -13 -23 -18 0 -11 -101 -55 -108 -47 -3 3 0 5 6 5 7 0 11 5 10 12 -3
12 26 29 77 46 38 12 68 14 38 2z m-653 -37 c-11 -17 -11 -17 -6 0 3 10 6 24
7 30 0 9 2 9 5 0 3 -7 0 -20 -6 -30z m-245 -21 c-15 -11 -14 -40 1 -46 8 -3
11 0 7 10 -3 9 1 14 12 14 11 0 15 5 11 16 -3 8 -2 12 4 9 12 -8 13 -45 1 -64
-11 -17 -45 0 -62 31 -9 16 -8 22 2 29 17 11 38 12 24 1z m195 -12 c0 -5 -4
-10 -10 -10 -5 0 -10 5 -10 10 0 6 5 10 10 10 6 0 10 -4 10 -10z m527 4 c-3
-3 -12 -4 -19 -1 -8 3 -5 6 6 6 11 1 17 -2 13 -5z m-632 -24 c12 0 25 -21 25
-39 0 -4 -14 -8 -31 -9 -28 -2 -31 0 -25 20 3 13 6 30 7 38 0 10 2 11 6 3 2
-7 11 -13 18 -13z m73 -7 c2 -8 -5 -13 -17 -13 -12 0 -21 6 -21 16 0 18 31 15
38 -3z m-428 -31 c-8 -3 -22 -10 -30 -16 -13 -9 -13 -9 -3 5 7 9 10 18 7 22
-3 3 4 3 17 0 16 -5 19 -8 9 -11z m54 -11 c4 -5 -3 -7 -14 -4 -23 6 -26 13 -6
13 8 0 17 -4 20 -9z m761 -11 c13 -5 14 -9 5 -9 -8 0 -24 4 -35 9 -13 5 -14 9
-5 9 8 0 24 -4 35 -9z m-72 -17 c-7 -2 -19 -2 -25 0 -7 3 -2 5 12 5 14 0 19
-2 13 -5z m-248 -13 c3 -6 -1 -7 -9 -4 -18 7 -21 14 -7 14 6 0 13 -4 16 -10z
m120 0 c-3 -5 -14 -10 -23 -9 -14 0 -13 2 3 9 27 11 27 11 20 0z m-178 -26
c-3 -3 -12 -4 -19 -1 -8 3 -5 6 6 6 11 1 17 -2 13 -5z m453 -274 c0 -5 -2 -10
-4 -10 -3 0 -8 5 -11 10 -3 6 -1 10 4 10 6 0 11 -4 11 -10z m25 0 c3 -5 1 -10
-4 -10 -6 0 -11 5 -11 10 0 6 2 10 4 10 3 0 8 -4 11 -10z m162 -80 c-6 -16
-14 -30 -17 -30 -4 0 -5 14 -2 30 2 17 10 30 17 30 11 0 11 -6 2 -30z m325
-95 c3 3 3 -6 1 -20 -3 -13 -9 -22 -14 -20 -4 3 -5 13 -2 22 5 12 2 15 -10 10
-18 -7 -26 2 -32 35 -4 20 -3 20 23 -6 16 -14 31 -24 34 -21z m-1212 -10 c-19
-7 -42 -13 -50 -13 -10 0 -11 1 -2 5 6 2 10 9 6 14 -3 5 14 9 38 8 l43 -1 -35
-13z m-212 -140 c14 -30 16 -54 4 -39 -15 17 -32 64 -23 64 4 0 13 -11 19 -25z
m1587 -325 c3 -14 9 -34 12 -45 5 -18 5 -18 -12 -1 -17 16 -19 16 -44 -7 -21
-19 -41 -26 -98 -31 -72 -6 -73 -6 -73 18 0 16 11 32 30 46 17 12 28 26 25 31
-4 5 15 9 42 10 39 1 43 3 23 9 -24 8 -24 8 -2 9 13 1 25 -6 29 -16 5 -14 8
-13 14 6 7 18 11 20 28 9 11 -7 23 -24 26 -38z"/>
<path d="M1188 2163 c6 -2 18 -2 25 0 6 3 1 5 -13 5 -14 0 -19 -2 -12 -5z"/>
<path d="M1288 2163 c6 -2 18 -2 25 0 6 3 1 5 -13 5 -14 0 -19 -2 -12 -5z"/>
<path d="M610 1230 c8 -5 20 -10 25 -10 6 0 3 5 -5 10 -8 5 -19 10 -25 10 -5
0 -3 -5 5 -10z"/>
<path d="M2106 687 c3 -10 9 -15 12 -12 3 3 0 11 -7 18 -10 9 -11 8 -5 -6z"/>
<path d="M2290 201 c0 -5 5 -13 10 -16 6 -3 10 -2 10 4 0 5 -4 13 -10 16 -5 3
-10 2 -10 -4z"/>
<path d="M1607 2416 c3 -48 9 -100 13 -115 5 -14 6 19 3 74 -3 55 -9 107 -14
115 -4 8 -6 -25 -2 -74z"/>
<path d="M2195 2449 c-34 -18 -112 -79 -177 -138 -31 -28 -42 -36 -100 -70
-32 -18 -58 -37 -58 -42 0 -6 -4 -8 -8 -5 -4 2 -9 -5 -9 -17 -2 -17 0 -19 7
-7 7 10 10 11 10 3 0 -21 22 -15 75 20 63 42 81 49 93 34 12 -15 42 -118 42
-144 0 -11 9 -28 20 -38 22 -20 22 -20 24 15 1 14 25 57 53 95 67 93 123 202
130 254 6 46 10 49 29 24 13 -17 14 -17 8 0 -14 40 -80 47 -139 16z m85 2 c0
-5 -9 -7 -20 -4 -11 3 -20 7 -20 9 0 2 9 4 20 4 11 0 20 -4 20 -9z m-172 -407
c-4 -3 -12 5 -18 18 -12 22 -12 22 6 6 10 -10 15 -20 12 -24z"/>
<path d="M71 2414 c0 -11 3 -14 6 -6 3 7 2 16 -1 19 -3 4 -6 -2 -5 -13z"/>
<path d="M81 2374 c0 -11 3 -14 6 -6 3 7 2 16 -1 19 -3 4 -6 -2 -5 -13z"/>
<path d="M2306 2305 c-9 -26 -7 -32 5 -12 6 10 9 21 6 23 -2 3 -7 -2 -11 -11z"/>
<path d="M126 2273 c-6 -14 -5 -15 5 -6 7 7 10 15 7 18 -3 3 -9 -2 -12 -12z"/>
<path d="M131 2235 c0 -5 6 -21 14 -35 8 -14 14 -20 14 -15 0 6 -6 21 -14 35
-8 14 -14 21 -14 15z"/>
<path d="M2204 2158 l-19 -23 23 19 c21 18 27 26 19 26 -2 0 -12 -10 -23 -22z"/>
<path d="M160 2168 c0 -14 53 -128 57 -124 3 3 -2 19 -11 37 -9 18 -16 37 -16
43 -1 11 -30 55 -30 44z"/>
<path d="M1850 2142 c0 -6 4 -12 9 -12 10 0 27 -39 23 -52 -1 -4 4 -5 11 -2 7
2 19 -7 27 -20 7 -14 22 -28 32 -32 12 -3 17 -12 14 -20 -3 -8 -2 -13 3 -10
10 7 21 -27 21 -66 0 -20 4 -26 15 -22 19 8 19 40 0 93 -8 23 -12 48 -9 56 4
8 1 15 -6 15 -6 0 -9 4 -6 9 5 8 -12 71 -20 71 -16 0 -54 -26 -56 -39 -2 -12
-9 -9 -31 14 -15 16 -27 24 -27 17z"/>
<path d="M2163 2108 c-11 -13 -24 -30 -28 -38 -8 -16 -6 -14 34 33 14 15 22
27 19 27 -2 0 -14 -10 -25 -22z"/>
<path d="M1757 2085 c-5 -11 -13 -15 -25 -11 -19 7 62 -70 90 -85 14 -7 18 -6
18 6 0 8 -4 15 -10 15 -5 0 -10 6 -10 13 0 6 -13 27 -29 46 -24 29 -29 31 -34
16z"/>
<path d="M226 2017 c3 -10 9 -15 12 -12 3 3 0 11 -7 18 -10 9 -11 8 -5 -6z"/>
<path d="M275 1990 c3 -5 8 -10 11 -10 2 0 4 5 4 10 0 6 -5 10 -11 10 -5 0 -7
-4 -4 -10z"/>
<path d="M1854 1933 c14 -42 36 -56 36 -23 0 29 -18 60 -35 60 -12 0 -12 -6
-1 -37z"/>
<path d="M2021 1860 c-1 -14 4 -78 11 -142 10 -100 15 -118 29 -118 10 0 20
-8 22 -17 3 -11 5 -7 6 10 0 15 -3 27 -8 27 -5 0 -7 10 -3 22 3 13 1 19 -5 15
-7 -4 -13 17 -16 61 -6 72 -35 186 -36 142z"/>
<path d="M336 1800 c3 -14 11 -31 18 -37 9 -10 12 -9 12 7 0 10 -2 17 -5 14
-3 -2 -11 6 -18 18 l-14 23 7 -25z"/>
<path d="M1905 1460 c-3 -5 -2 -10 4 -10 5 0 13 5 16 10 3 6 2 10 -4 10 -5 0
-13 -4 -16 -10z"/>
<path d="M205 1290 c-3 -6 1 -7 9 -4 18 7 21 14 7 14 -6 0 -13 -4 -16 -10z"/>
<path d="M211 1237 c2 -1 13 -9 24 -17 19 -14 19 -14 6 3 -7 9 -18 17 -24 17
-6 0 -8 -1 -6 -3z"/>
<path d="M340 1156 c0 -3 14 -12 30 -21 17 -9 30 -13 30 -11 0 3 -13 12 -30
21 -16 9 -30 13 -30 11z"/>
<path d="M2410 1087 c0 -11 39 -87 45 -87 7 0 -13 49 -30 73 -8 12 -15 18 -15
14z"/>
<path d="M2438 1083 c7 -3 16 -2 19 1 4 3 -2 6 -13 5 -11 0 -14 -3 -6 -6z"/>
<path d="M105 870 c-39 -26 -25 -26 17 0 18 11 29 20 23 20 -5 0 -23 -9 -40
-20z"/>
<path d="M352 635 c0 -16 2 -22 5 -12 2 9 2 23 0 30 -3 6 -5 -1 -5 -18z"/>
<path d="M1635 566 c-56 -54 -105 -87 -117 -80 -4 3 -8 0 -8 -6 0 -7 -9 -9
-22 -6 -13 3 -17 3 -10 0 6 -3 9 -10 6 -15 -3 -6 -12 -5 -22 3 -14 11 -15 10
-9 -6 7 -17 6 -17 -10 -5 -11 9 -14 10 -9 2 5 -9 1 -13 -11 -13 -10 0 -33 -9
-51 -20 -18 -11 -39 -20 -48 -20 -8 0 -13 -4 -10 -9 7 -11 -48 -22 -71 -15
-15 5 -16 4 -3 -5 12 -9 6 -11 -27 -8 -23 2 -47 -1 -53 -7 -7 -7 -10 -6 -10 3
0 8 -7 10 -22 5 -13 -4 -47 -8 -77 -9 -91 -3 -68 -20 32 -23 102 -4 205 15
300 54 83 35 227 124 262 161 16 18 33 33 37 33 19 0 6 -61 -19 -90 -24 -29
-28 -31 -34 -14 -7 17 -8 16 -8 -4 -1 -37 -143 -123 -278 -168 -97 -32 -177
-42 -198 -24 -12 10 -15 10 -15 -5 0 -14 -6 -15 -32 -10 -18 4 -45 16 -60 27
-37 26 -35 14 3 -21 26 -24 37 -28 70 -24 31 5 39 2 39 -10 0 -14 -5 -15 -26
-6 -15 5 -29 7 -32 5 -10 -10 55 -29 137 -39 119 -15 223 10 323 77 43 29 93
104 122 184 25 70 34 147 19 154 -5 2 -30 -19 -58 -46z m25 -116 c0 -5 -5 -10
-11 -10 -5 0 -7 5 -4 10 3 6 8 10 11 10 2 0 4 -4 4 -10z m-25 -49 c-24 -47
-97 -121 -139 -142 -91 -46 -250 -65 -311 -37 -33 15 -32 28 3 28 84 0 256 64
369 137 74 48 98 52 78 14z"/>
<path d="M352 520 c0 -14 2 -19 5 -12 2 6 2 18 0 25 -3 6 -5 1 -5 -13z"/>
<path d="M1722 510 c0 -19 2 -27 5 -17 2 9 2 25 0 35 -3 9 -5 1 -5 -18z"/>
<path d="M855 500 c4 -20 2 -29 -5 -25 -5 3 -10 2 -10 -4 0 -17 18 -21 24 -5
9 24 7 52 -4 59 -7 4 -9 -5 -5 -25z"/>
<path d="M676 497 c3 -10 9 -15 12 -12 3 3 0 11 -7 18 -10 9 -11 8 -5 -6z"/>
<path d="M2206 490 c7 -27 34 -71 34 -55 -1 6 -10 26 -21 45 -15 26 -18 29
-13 10z"/>
<path d="M362 460 c0 -14 2 -19 5 -12 2 6 2 18 0 25 -3 6 -5 1 -5 -13z"/>
<path d="M1712 435 c0 -16 2 -22 5 -12 2 9 2 23 0 30 -3 6 -5 -1 -5 -18z"/>
<path d="M372 410 c0 -14 2 -19 5 -12 2 6 2 18 0 25 -3 6 -5 1 -5 -13z"/>
<path d="M835 420 c3 -5 8 -10 11 -10 2 0 4 5 4 10 0 6 -5 10 -11 10 -5 0 -7
-4 -4 -10z"/>
<path d="M2246 400 c3 -14 11 -32 16 -40 6 -10 7 -7 2 10 -3 14 -11 32 -16 40
-6 10 -7 7 -2 -10z"/>
<path d="M1690 349 c-14 -52 -75 -139 -82 -118 -2 7 -10 4 -18 -7 -9 -11 -10
-15 -2 -10 20 12 14 -5 -10 -26 -30 -26 -98 -61 -105 -54 -3 3 6 10 21 15 38
15 32 21 -9 8 -19 -6 -35 -14 -35 -20 0 -5 -18 -6 -42 -1 -24 4 -57 6 -75 5
-17 -1 -34 3 -38 9 -4 6 9 10 32 10 34 1 72 7 143 25 14 3 5 -3 -20 -14 -25
-11 -37 -20 -27 -20 31 -1 77 28 71 44 -7 18 -3 18 -55 -1 -32 -12 -72 -16
-144 -15 -55 1 -111 1 -125 1 -14 0 -37 0 -52 0 -15 -1 -39 7 -53 16 -14 9
-28 15 -31 12 -2 -3 17 -16 43 -30 33 -16 49 -31 51 -47 2 -15 0 -21 -7 -17
-6 4 -9 1 -5 -7 3 -8 14 -17 25 -20 13 -4 19 -14 18 -34 0 -28 0 -28 -10 -4
-12 31 -18 24 -12 -16 l5 -33 173 0 c129 0 175 3 178 13 4 9 6 9 6 0 1 -8 16
-13 40 -13 36 0 42 4 66 43 15 23 24 33 20 22 -24 -65 -24 -65 59 -65 42 0 76
3 76 6 0 4 -16 20 -35 37 -19 16 -35 37 -35 46 -1 13 -3 13 -15 -3 -14 -18
-15 -16 -15 26 0 24 9 71 20 103 11 32 18 67 14 77 -3 10 0 34 6 53 6 19 10
40 8 46 -2 6 -10 -13 -18 -42z m-6 -93 c-3 -14 -10 -26 -14 -26 -5 0 -3 13 3
30 13 35 21 33 11 -4z m-407 -102 c-3 -3 -12 -4 -19 -1 -8 3 -5 6 6 6 11 1 17
-2 13 -5z m140 -40 c-3 -3 -12 -4 -19 -1 -8 3 -5 6 6 6 11 1 17 -2 13 -5z
m133 -34 c-6 -11 -13 -20 -16 -20 -2 0 0 9 6 20 6 11 13 20 16 20 2 0 0 -9 -6
-20z"/>
<path d="M1721 368 c0 -9 -4 -25 -7 -35 -5 -17 -5 -17 6 0 6 10 9 25 7 35 -4
15 -5 15 -6 0z"/>
<path d="M381 360 c0 -8 4 -22 9 -30 12 -18 12 -2 0 25 -6 13 -9 15 -9 5z"/>
<path d="M401 284 c0 -11 3 -14 6 -6 3 7 2 16 -1 19 -3 4 -6 -2 -5 -13z"/>
<path d="M1540 185 c-7 -8 -8 -15 -2 -15 5 0 15 7 22 15 7 8 8 15 2 15 -5 0
-15 -7 -22 -15z"/>
</g>
</svg>
